<svg width="26" height="141" viewBox="0 0 26 141" fill="none" xmlns="http://www.w3.org/2000/svg">
<path d="M20.1532 7.63418C19.2358 7.00672 18.6605 6.16776 18.2005 4.87588C18.0295 4.39565 17.6029 4.08513 17.1137 4.08513C16.5878 4.08513 16.1069 4.42426 15.7945 5.01539C15.6191 5.34197 15.5113 5.70055 15.4775 6.06972C15.1535 5.47891 14.4952 5.35322 14.1831 5.77335C14.1831 5.77335 11.6161 3.82187 10.7404 3.20053C9.57682 2.37571 8.03551 3.28924 8.07408 4.23268C6.60477 3.43614 4.99177 4.84245 5.48872 6.31626C4.92041 6.21212 3.46685 7.71872 4.99499 8.87591C3.93648 8.98456 3.52535 10.6419 4.75551 11.3963C4.75551 11.3963 4.7613 11.6255 4.77769 11.738C3.96701 11.9843 3.68736 13.5169 4.47136 14.0007C4.47136 14.0007 10.1255 17.6111 12.0719 18.6973C13.1294 19.2874 14.9504 19.5192 16.5727 18.9923C18.1481 18.829 19.4846 17.9939 20.5586 16.5057C23.5142 12.4098 21.1728 8.33171 20.1532 7.63418ZM19.807 16.1064C18.5762 17.8358 16.8086 18.0152 15.456 18.0152C13.248 18.0152 11.8992 16.9566 11.8992 16.9566L5.83941 12.432C4.69219 11.64 5.38297 10.378 6.18786 10.4012L11.0085 13.686L11.6019 13.7229C11.6019 13.7229 7.29619 10.6319 5.9021 9.54387C5.0882 8.9087 5.35564 7.69557 6.40933 7.45449L12.4383 11.7824L13.031 11.8194L6.59095 6.82479C5.23028 5.83024 6.59577 3.95495 7.91497 4.90996C9.43635 6.01122 14.0134 9.50176 14.0134 9.50176L14.6067 9.53904L8.58132 4.54801C8.52924 3.77784 9.55368 3.10827 10.3727 3.72094C12.0198 4.95303 16.9636 8.64544 16.9636 8.64544C16.8363 8.28896 16.7726 8.02087 16.7726 8.02087C16.7726 8.02087 15.8334 6.45931 16.3422 5.32237C16.789 4.32525 17.6929 4.48726 17.8752 5.0231C18.3596 6.44966 18.8614 7.29634 19.8652 8.00994C21.1471 8.92123 22.458 12.3832 19.807 16.1064Z" fill="black"/>
<path d="M17.5129 0.285762L14.7453 0L15.6897 3.94088L17.5129 0.285762Z" fill="black"/>
<path d="M19.8029 1.04919L18.3965 4.32565L21.6769 3.44683L19.8029 1.04919Z" fill="black"/>
<path d="M12.0709 0.497925L10.0748 2.14789L12.9497 4.02125L12.0709 0.497925Z" fill="black"/>
<path d="M5.4668 41.2864V31.3333H5.35059L1.88477 32.7688V33.5549L4.64648 32.3792V41.2864H5.4668ZM15.9258 41.2864V40.5823H10.6963L13.4717 37.4514C13.7087 37.1917 13.9434 36.9228 14.1758 36.6448C14.4082 36.3622 14.6156 36.0728 14.7979 35.7766C14.9847 35.4804 15.1374 35.1773 15.2559 34.8674C15.3743 34.5575 15.4336 34.2385 15.4336 33.9104C15.4336 33.5048 15.363 33.1357 15.2217 32.803C15.085 32.4703 14.889 32.1832 14.6338 31.9417C14.3786 31.7047 14.071 31.5224 13.7109 31.3948C13.3509 31.2626 12.9521 31.1965 12.5146 31.1965C12.0498 31.1965 11.6305 31.2763 11.2568 31.4358C10.8877 31.5953 10.571 31.8118 10.3066 32.0852C10.0469 32.3586 9.84408 32.6777 9.69824 33.0422C9.55241 33.4068 9.47721 33.7942 9.47266 34.2043H10.293C10.2975 33.8717 10.3499 33.5663 10.4502 33.2883C10.555 33.0058 10.7008 32.762 10.8877 32.5569C11.0791 32.3518 11.3092 32.1923 11.5781 32.0784C11.8516 31.9599 12.1637 31.9006 12.5146 31.9006C12.8291 31.9006 13.1139 31.9508 13.3691 32.051C13.6243 32.1467 13.8454 32.2857 14.0322 32.468C14.2145 32.6458 14.3558 32.8599 14.4561 33.1106C14.5563 33.3612 14.6064 33.637 14.6064 33.9377C14.6064 34.1975 14.5654 34.4504 14.4834 34.6965C14.4014 34.9381 14.2874 35.1819 14.1416 35.428C13.9958 35.6695 13.8203 35.9156 13.6152 36.1663C13.4147 36.4169 13.1937 36.679 12.9521 36.9524L9.69141 40.6438V41.2864H15.9258ZM18.9883 36.1868L19.6309 36.3713C19.8451 36.1799 20.0706 36.0341 20.3076 35.9338C20.5492 35.829 20.8044 35.7652 21.0732 35.7424C21.333 35.7151 21.5791 35.731 21.8115 35.7903C22.0485 35.845 22.2741 35.9338 22.4883 36.0569C22.7572 36.1799 22.9827 36.3531 23.165 36.5764C23.3473 36.7952 23.4818 37.0504 23.5684 37.342C23.6504 37.6383 23.6914 37.9436 23.6914 38.2581C23.6914 38.568 23.6413 38.8665 23.541 39.1536C23.4453 39.4589 23.2995 39.7209 23.1035 39.9397C22.9121 40.1539 22.6683 40.3111 22.3721 40.4114C22.1077 40.5116 21.8434 40.5618 21.5791 40.5618C21.3148 40.5572 21.0527 40.5025 20.793 40.3977C20.4147 40.2929 20.1071 40.0946 19.8701 39.803C19.6331 39.5113 19.485 39.1331 19.4258 38.6682H18.6396C18.6852 39.1012 18.79 39.4885 18.9541 39.8303C19.1227 40.1721 19.3415 40.4615 19.6104 40.6985C19.8747 40.9309 20.1823 41.1109 20.5332 41.2385C20.8887 41.3616 21.2715 41.4231 21.6816 41.4231C22.1875 41.4231 22.6273 41.3365 23.001 41.1633C23.3747 40.9902 23.6823 40.7555 23.9238 40.4592C24.1699 40.1584 24.3522 39.8075 24.4707 39.4065C24.5892 39.0055 24.6484 38.5748 24.6484 38.1145C24.6484 37.6451 24.5778 37.2144 24.4365 36.8225C24.2998 36.4306 24.1038 36.0933 23.8486 35.8108C23.5934 35.5237 23.2835 35.3004 22.9189 35.1409C22.5589 34.9814 22.151 34.9016 21.6953 34.9016C21.3353 34.9016 20.9935 34.9517 20.6699 35.052C20.3509 35.1477 20.0706 35.2799 19.8291 35.4485L20.1709 32.1262H24.4502V31.3333H19.4668L18.9883 36.1868Z" fill="black"/>
<path d="M18.9469 108.463C18.4793 108.463 18.0179 108.57 17.5985 108.777C17.1791 108.984 16.8129 109.285 16.5283 109.656L9.94318 105.918C10.1644 105.276 10.1644 104.579 9.94318 103.937L16.5283 100.199C16.9879 100.796 17.6519 101.201 18.3924 101.337C19.1329 101.473 19.8976 101.331 20.5395 100.937C21.1813 100.543 21.6548 99.9263 21.869 99.2045C22.0831 98.4826 22.0227 97.7071 21.6994 97.0271C21.3761 96.3471 20.8128 95.8107 20.1177 95.5211C19.4227 95.2315 18.6452 95.2091 17.9347 95.4583C17.2242 95.7076 16.6309 96.2108 16.2691 96.8711C15.9073 97.5314 15.8025 98.3022 15.9749 99.0351L9.27757 102.836C8.85848 102.39 8.31511 102.081 7.71792 101.948C7.12073 101.814 6.49727 101.864 5.92842 102.089C5.35957 102.314 4.87157 102.706 4.52771 103.212C4.18385 103.718 4 104.316 4 104.927C4 105.539 4.18385 106.137 4.52771 106.643C4.87157 107.149 5.35957 107.54 5.92842 107.766C6.49727 107.991 7.12073 108.04 7.71792 107.907C8.31511 107.774 8.85848 107.464 9.27757 107.018L15.9749 110.82C15.8305 111.437 15.8817 112.083 16.1214 112.67C16.3612 113.257 16.7775 113.754 17.3127 114.093C17.8479 114.433 18.4754 114.597 19.1082 114.564C19.741 114.53 20.3478 114.301 20.8442 113.907C21.3407 113.513 21.7024 112.975 21.879 112.366C22.0556 111.758 22.0385 111.109 21.83 110.511C21.6214 109.912 21.2318 109.394 20.7152 109.027C20.1986 108.66 19.5806 108.462 18.9469 108.463ZM18.9469 96.5716C19.2965 96.5716 19.6383 96.6753 19.9289 96.8695C20.2196 97.0638 20.4462 97.3398 20.5799 97.6628C20.7137 97.9858 20.7487 98.3412 20.6805 98.684C20.6123 99.0269 20.444 99.3419 20.1968 99.5891C19.9496 99.8363 19.6346 100.005 19.2918 100.073C18.9489 100.141 18.5935 100.106 18.2705 99.9722C17.9475 99.8384 17.6715 99.6119 17.4773 99.3212C17.283 99.0305 17.1794 98.6888 17.1794 98.3392C17.1799 97.8706 17.3663 97.4213 17.6977 97.0899C18.029 96.7586 18.4783 96.5722 18.9469 96.5716ZM7.05607 106.695C6.70648 106.695 6.36474 106.591 6.07406 106.397C5.78339 106.203 5.55684 105.927 5.42306 105.604C5.28927 105.281 5.25427 104.925 5.32247 104.583C5.39067 104.24 5.55902 103.925 5.80621 103.678C6.05341 103.43 6.36836 103.262 6.71123 103.194C7.05411 103.126 7.40951 103.161 7.73248 103.294C8.05546 103.428 8.33152 103.655 8.52574 103.945C8.71996 104.236 8.82363 104.578 8.82363 104.927C8.82311 105.396 8.63672 105.845 8.30535 106.177C7.97398 106.508 7.52469 106.694 7.05607 106.695ZM18.9469 113.283C18.5973 113.283 18.2556 113.179 17.9649 112.985C17.6743 112.791 17.4477 112.515 17.3139 112.192C17.1801 111.869 17.1451 111.514 17.2133 111.171C17.2815 110.828 17.4499 110.513 17.6971 110.266C17.9443 110.019 18.2592 109.85 18.6021 109.782C18.945 109.714 19.3004 109.749 19.6233 109.883C19.9463 110.016 20.2224 110.243 20.4166 110.534C20.6108 110.824 20.7145 111.166 20.7145 111.516C20.714 111.984 20.5276 112.433 20.1962 112.765C19.8648 113.096 19.4156 113.283 18.9469 113.283Z" fill="black"/>
<path d="M12.4883 127.232V126.76H5.94629V127.499H11.6064L7.38867 136.714H8.23633L12.4883 127.232ZM20.8555 132.776V130.698C20.8509 130.06 20.7643 129.456 20.5957 128.886C20.4316 128.312 20.1719 127.841 19.8164 127.471C19.5703 127.203 19.2695 126.993 18.9141 126.843C18.5632 126.692 18.1644 126.617 17.7178 126.617C17.1846 126.617 16.722 126.722 16.3301 126.931C15.9382 127.141 15.6146 127.43 15.3594 127.8C15.0996 128.169 14.9059 128.604 14.7783 129.105C14.6507 129.607 14.5869 130.137 14.5869 130.698V132.776C14.5869 133.419 14.6689 134.023 14.833 134.588C15.0016 135.148 15.2705 135.62 15.6396 136.003C15.8857 136.281 16.1842 136.493 16.5352 136.638C16.8906 136.78 17.2894 136.85 17.7314 136.85C18.2738 136.85 18.7409 136.743 19.1328 136.529C19.5247 136.31 19.846 136.016 20.0967 135.647C20.3473 135.278 20.5365 134.847 20.6641 134.355C20.7917 133.863 20.8555 133.337 20.8555 132.776ZM15.4893 133.371C15.4574 133.189 15.4346 133.009 15.4209 132.831C15.4118 132.653 15.4072 132.475 15.4072 132.298V130.554C15.4072 130.108 15.4528 129.675 15.5439 129.256C15.6396 128.832 15.7855 128.481 15.9814 128.203C16.1774 127.925 16.4121 127.708 16.6855 127.553C16.9635 127.399 17.3076 127.321 17.7178 127.321C18.0368 127.321 18.3193 127.371 18.5654 127.471C18.8115 127.567 19.0234 127.706 19.2012 127.888C19.3789 128.071 19.5247 128.289 19.6387 128.545C19.7572 128.795 19.846 129.076 19.9053 129.385L15.4893 133.371ZM20.0352 132.906C20.0306 133.362 19.9827 133.792 19.8916 134.198C19.805 134.604 19.6569 134.955 19.4473 135.251C19.2741 135.524 19.0439 135.743 18.7568 135.907C18.4697 136.071 18.1279 136.153 17.7314 136.153C17.4261 136.153 17.1527 136.108 16.9111 136.016C16.6696 135.921 16.4622 135.788 16.2891 135.62C16.1068 135.447 15.9541 135.237 15.8311 134.991C15.7126 134.74 15.6214 134.462 15.5576 134.157L19.9668 130.185C19.9896 130.358 20.0055 130.55 20.0146 130.76C20.0238 130.969 20.0306 131.147 20.0352 131.293V132.906Z" fill="black"/>
</svg>
