<svg width="800" height="306" viewBox="0 0 800 306" fill="none" xmlns="http://www.w3.org/2000/svg">
<path opacity="0.05" fill-rule="evenodd" clip-rule="evenodd" d="M400 -229C70.6 -229 0 -158.4 0 171C0 500.4 70.6 571 400 571C729.4 571 800 500.4 800 171C800 -158.4 729.4 -229 400 -229ZM339.306 81.262V241.738H414.356C445.302 241.738 468.694 221.8 468.694 194.081C468.694 183.133 465.187 174.061 458.831 167.07C454.46 162.263 448.742 158.439 441.891 155.665C446.587 150.457 449.545 144.383 450.854 137.442C451.378 134.659 451.637 131.737 451.637 128.676C451.637 100.714 428.245 81.262 397.299 81.262H339.306ZM478.136 158.742C475.436 154.958 472.335 151.587 468.917 148.61C470.972 142.277 471.943 135.583 471.943 128.676C471.943 86.805 436.527 61 397.299 61H319V262H414.356C453.803 262 489 235.519 489 194.081C489 181.042 485.416 168.94 478.136 158.742ZM394.619 144.723C396.494 144.723 398.231 144.526 399.817 144.15C406.681 142.521 410.701 137.533 410.701 130.621C410.701 123.707 406.681 118.72 399.817 117.092C398.231 116.715 396.494 116.518 394.619 116.518H379.511V144.723H394.619ZM412.806 186.144C412.807 186.145 412.779 186.153 412.717 186.162C412.774 186.148 412.805 186.143 412.806 186.144ZM412.717 198.597C412.779 198.607 412.807 198.614 412.806 198.615C412.805 198.616 412.774 198.612 412.717 198.597ZM427.758 192.38C427.758 201.862 421.666 206.482 411.675 206.482H379.511V178.277H411.675C421.666 178.277 427.758 182.897 427.758 192.38Z" fill="white"/>
</svg>
